<svg width="118" height="49" viewBox="0 0 118 49" fill="none" xmlns="http://www.w3.org/2000/svg">
<g opacity="0.8">
<g clip-path="url(#clip0_3450_20)">
<rect x="118" width="49" height="118" rx="8" transform="rotate(90 118 0)" fill="white" fill-opacity="0.2"/>
<path d="M105.66 0H11.3402C4.52471 0 -1 5.56299 -1 12.4257V36.5701C-1 43.4328 4.52471 48.9958 11.3402 48.9958H105.656C112.471 48.9958 117.996 43.4328 117.996 36.5701V12.4257C117.996 5.56299 112.471 0 105.656 0H105.66ZM29.7391 34.8258H25.5598L21.6959 21.4687H21.5361L17.6848 34.8258H13.5055L7.69911 14.3986H12.3829L15.7423 28.5939H15.9105L19.6147 14.3986H23.6258L27.3215 28.6236H27.4981L30.8575 14.3986H35.5413L29.7349 34.8258H29.7391ZM52.023 32.1925C51.3545 33.0985 50.4295 33.8097 49.2564 34.3263C48.0791 34.847 46.7337 35.1052 45.2159 35.1052C43.6981 35.1052 42.4199 34.847 41.2678 34.3305C40.1158 33.814 39.2076 33.1027 38.5433 32.1967C37.879 31.2907 37.5385 30.2408 37.5174 29.0512H41.8355C41.8607 29.5507 42.0247 29.9868 42.3274 30.3636C42.6259 30.7404 43.0295 31.0283 43.5299 31.2357C44.0302 31.4432 44.5978 31.5448 45.2243 31.5448C45.8508 31.5448 46.4562 31.4305 46.9565 31.1976C47.4569 30.9648 47.8521 30.643 48.1338 30.2281C48.4197 29.8174 48.5585 29.339 48.5585 28.8014C48.5585 28.2637 48.4071 27.7726 48.1086 27.3492C47.8101 26.9259 47.377 26.5956 46.822 26.3586C46.2628 26.1172 45.6027 25.9987 44.8375 25.9987H42.9454V22.8277H44.8375C45.485 22.8277 46.0568 22.7134 46.5571 22.489C47.0574 22.2646 47.4443 21.9471 47.7218 21.5449C47.9993 21.1427 48.138 20.6728 48.138 20.1351C48.138 19.5975 48.0161 19.1741 47.7764 18.7846C47.5368 18.3951 47.2004 18.0903 46.7673 17.8701C46.3343 17.65 45.8297 17.5399 45.2579 17.5399C44.6861 17.5399 44.1437 17.6458 43.6644 17.8532C43.1809 18.0607 42.7941 18.3612 42.504 18.7465C42.2139 19.1318 42.0583 19.5848 42.0373 20.1013H37.9253C37.9463 18.9243 38.2785 17.8871 38.9259 16.9895C39.5734 16.092 40.448 15.3892 41.5453 14.8812C42.6469 14.3732 43.8873 14.1191 45.2747 14.1191C46.6622 14.1191 47.8983 14.3732 48.9495 14.8854C50.0006 15.3977 50.8163 16.0878 51.4007 16.9557C51.9851 17.8236 52.2752 18.7973 52.2668 19.8726C52.2752 21.0157 51.9221 21.9725 51.2115 22.7346C50.5009 23.5009 49.5802 23.9835 48.4449 24.1909V24.3518C49.9375 24.5466 51.077 25.0631 51.859 25.914C52.641 26.7608 53.0278 27.8192 53.0236 29.0893C53.032 30.2535 52.6999 31.2865 52.0272 32.1925H52.023ZM115.494 34.5972C115.494 41.3117 110.087 46.7604 103.415 46.7604H73.5458C66.8733 46.7604 61.4663 41.316 61.4663 34.5972V14.4028C61.4663 7.68827 66.8733 2.23959 73.5458 2.23959H103.415C110.087 2.23959 115.494 7.68403 115.494 14.4028V34.5972Z" fill="#797979"/>
<path d="M83.5778 15.9015C82.1062 15.0886 80.3487 14.678 78.3095 14.678H71.0568V35.1052H78.2465C80.3067 35.1052 82.0768 34.6946 83.5609 33.8775C85.0451 33.0604 86.1846 31.8877 86.9792 30.3551C87.7739 28.8268 88.1733 26.9978 88.1733 24.8683C88.1733 22.7388 87.7739 20.9268 86.9792 19.4027C86.1846 17.8786 85.0493 16.7101 83.5778 15.8973V15.9015ZM83.2372 28.5981C82.7999 29.5592 82.144 30.2662 81.2737 30.7234C80.4034 31.1807 79.3354 31.405 78.0699 31.405H75.3454V18.3782H78.0783C79.348 18.3782 80.4118 18.6026 81.2779 19.0555C82.144 19.5085 82.7957 20.2113 83.233 21.1681C83.6703 22.1249 83.8931 23.3611 83.8931 24.8683C83.8931 26.3755 83.6745 27.6329 83.233 28.5939L83.2372 28.5981Z" fill="#797979"/>
<path d="M105.017 25.2916C104.474 24.8048 103.835 24.3983 103.095 24.0639C102.355 23.7294 101.544 23.467 100.656 23.2637L98.8359 22.8234C98.3944 22.7218 97.9782 22.6033 97.5872 22.4593C97.1962 22.3154 96.8556 22.1461 96.5571 21.9513C96.2586 21.7566 96.0273 21.5195 95.8591 21.2485C95.691 20.9776 95.6111 20.6558 95.6279 20.2917C95.6279 19.8514 95.754 19.4619 96.0105 19.1148C96.2628 18.7676 96.6328 18.4967 97.1163 18.3019C97.5998 18.1072 98.1884 18.0056 98.8906 18.0056C99.9207 18.0056 100.736 18.23 101.338 18.6745C101.939 19.119 102.279 19.7456 102.359 20.55H106.471C106.45 19.3349 106.127 18.2638 105.5 17.3367C104.874 16.4137 103.995 15.6898 102.868 15.1733C101.741 14.6568 100.425 14.3943 98.92 14.3943C97.4148 14.3943 96.1198 14.6525 94.9594 15.1733C93.7989 15.694 92.8823 16.4137 92.2222 17.3367C91.5579 18.2596 91.23 19.3434 91.2384 20.5796C91.23 22.091 91.7219 23.2891 92.7142 24.1824C93.7064 25.0715 95.0561 25.7277 96.7673 26.1468L98.9747 26.7057C99.7147 26.8835 100.341 27.0867 100.85 27.3026C101.363 27.5228 101.75 27.7895 102.019 28.0985C102.288 28.4118 102.422 28.7971 102.422 29.2543C102.422 29.7454 102.275 30.1815 101.977 30.5625C101.678 30.9435 101.262 31.2357 100.724 31.4516C100.186 31.6633 99.5549 31.7691 98.8275 31.7691C98.1001 31.7691 97.4274 31.6548 96.843 31.4262C96.2586 31.1976 95.7919 30.8546 95.4471 30.3974C95.1023 29.9402 94.9047 29.3729 94.8585 28.687H90.7086C90.7423 30.1561 91.0954 31.3881 91.7724 32.383C92.4493 33.3779 93.3953 34.1272 94.6062 34.631C95.8171 35.1348 97.2424 35.3888 98.8822 35.3888C100.522 35.3888 101.943 35.1391 103.116 34.6353C104.289 34.1315 105.185 33.4244 105.811 32.51C106.438 31.5955 106.749 30.5117 106.757 29.2628C106.749 28.4118 106.597 27.6582 106.295 26.9978C105.996 26.3416 105.572 25.7658 105.033 25.2832L105.017 25.2916Z" fill="#797979"/>
</g>
</g>
<defs>
<clipPath id="clip0_3450_20">
<rect x="118" width="49" height="118" rx="8" transform="rotate(90 118 0)" fill="white"/>
</clipPath>
</defs>
</svg>
