<svg width="345" height="330" viewBox="0 0 345 330" fill="none" xmlns="http://www.w3.org/2000/svg">
<rect width="345" height="330" rx="40" fill="#F5F5F5"/>
<g clip-path="url(#clip0_275_1288)">
<path d="M212.63 144H133.37C127.643 144 123 148.655 123 154.397V174.599C123 180.342 127.643 184.996 133.37 184.996H212.627C218.354 184.996 222.996 180.342 222.996 174.599V154.397C222.996 148.655 218.354 144 212.627 144H212.63ZM148.831 173.14H145.319L142.072 161.964H141.938L138.702 173.14H135.19L130.31 156.048H134.246L137.069 167.926H137.211L140.323 156.048H143.694L146.8 167.95H146.948L149.771 156.048H153.707L148.828 173.14H148.831ZM167.557 170.937C166.995 171.695 166.218 172.29 165.232 172.722C164.243 173.158 163.112 173.374 161.837 173.374C160.561 173.374 159.487 173.158 158.519 172.726C157.551 172.293 156.788 171.698 156.23 170.94C155.671 170.182 155.385 169.304 155.368 168.308H158.996C159.017 168.726 159.155 169.091 159.41 169.406C159.66 169.722 160 169.962 160.42 170.136C160.841 170.31 161.317 170.395 161.844 170.395C162.37 170.395 162.879 170.299 163.3 170.104C163.72 169.909 164.052 169.64 164.289 169.293C164.529 168.949 164.646 168.549 164.646 168.099C164.646 167.649 164.519 167.238 164.268 166.884C164.017 166.53 163.653 166.253 163.187 166.055C162.717 165.853 162.162 165.754 161.519 165.754H159.929V163.101H161.519C162.063 163.101 162.544 163.005 162.964 162.817C163.384 162.63 163.709 162.364 163.943 162.027C164.176 161.691 164.292 161.298 164.292 160.848C164.292 160.398 164.19 160.044 163.989 159.718C163.787 159.392 163.505 159.137 163.141 158.953C162.777 158.768 162.353 158.676 161.872 158.676C161.392 158.676 160.936 158.765 160.533 158.938C160.127 159.112 159.802 159.363 159.558 159.686C159.314 160.008 159.183 160.387 159.166 160.819H155.71C155.728 159.835 156.007 158.967 156.551 158.216C157.095 157.465 157.83 156.877 158.752 156.452C159.678 156.027 160.72 155.814 161.886 155.814C163.052 155.814 164.091 156.027 164.974 156.455C165.858 156.884 166.543 157.461 167.034 158.187C167.525 158.914 167.769 159.728 167.762 160.628C167.769 161.585 167.472 162.385 166.875 163.023C166.278 163.664 165.504 164.068 164.55 164.241V164.376C165.805 164.539 166.762 164.971 167.419 165.683C168.076 166.392 168.402 167.277 168.398 168.34C168.405 169.314 168.126 170.179 167.561 170.937H167.557ZM220.894 172.949C220.894 178.567 216.351 183.126 210.743 183.126H185.644C180.036 183.126 175.493 178.571 175.493 172.949V156.051C175.493 150.433 180.036 145.874 185.644 145.874H210.743C216.351 145.874 220.894 150.429 220.894 156.051V172.949Z" fill="#8E52FF"/>
<path d="M194.074 157.305C192.837 156.625 191.36 156.282 189.647 156.282H183.552V173.374H189.594C191.325 173.374 192.812 173.03 194.06 172.346C195.307 171.663 196.264 170.682 196.932 169.399C197.6 168.12 197.936 166.59 197.936 164.808C197.936 163.026 197.6 161.51 196.932 160.235C196.264 158.96 195.31 157.982 194.074 157.302V157.305ZM193.788 167.929C193.42 168.733 192.869 169.325 192.138 169.707C191.406 170.09 190.509 170.278 189.445 170.278H187.156V159.378H189.452C190.519 159.378 191.413 159.565 192.141 159.944C192.869 160.323 193.417 160.912 193.784 161.712C194.151 162.513 194.339 163.547 194.339 164.808C194.339 166.069 194.155 167.121 193.784 167.926L193.788 167.929Z" fill="#8E52FF"/>
<path d="M212.09 165.162C211.634 164.755 211.097 164.415 210.475 164.135C209.853 163.855 209.171 163.636 208.426 163.466L206.896 163.097C206.525 163.012 206.175 162.913 205.846 162.793C205.518 162.672 205.232 162.53 204.981 162.367C204.73 162.205 204.536 162.006 204.394 161.779C204.253 161.553 204.186 161.283 204.2 160.979C204.2 160.61 204.306 160.285 204.521 159.994C204.733 159.704 205.044 159.477 205.451 159.314C205.857 159.151 206.352 159.066 206.942 159.066C207.807 159.066 208.493 159.254 208.998 159.626C209.503 159.998 209.789 160.522 209.857 161.195H213.312C213.294 160.178 213.022 159.282 212.496 158.506C211.969 157.734 211.231 157.128 210.284 156.696C209.337 156.264 208.231 156.044 206.966 156.044C205.701 156.044 204.613 156.26 203.638 156.696C202.663 157.132 201.893 157.734 201.338 158.506C200.78 159.278 200.504 160.185 200.511 161.22C200.504 162.484 200.918 163.487 201.751 164.234C202.585 164.978 203.719 165.527 205.157 165.878L207.012 166.346C207.634 166.494 208.161 166.664 208.588 166.845C209.019 167.029 209.344 167.252 209.57 167.511C209.796 167.773 209.91 168.096 209.91 168.478C209.91 168.889 209.786 169.254 209.535 169.573C209.284 169.892 208.934 170.136 208.482 170.317C208.03 170.494 207.5 170.582 206.889 170.582C206.277 170.582 205.712 170.487 205.221 170.295C204.73 170.104 204.338 169.817 204.048 169.435C203.758 169.052 203.592 168.577 203.553 168.003H200.066C200.094 169.233 200.391 170.264 200.96 171.096C201.529 171.928 202.324 172.555 203.341 172.977C204.359 173.399 205.557 173.611 206.935 173.611C208.313 173.611 209.507 173.402 210.493 172.981C211.478 172.559 212.231 171.967 212.757 171.202C213.284 170.437 213.545 169.53 213.552 168.485C213.545 167.773 213.418 167.143 213.164 166.59C212.913 166.041 212.556 165.559 212.104 165.155L212.09 165.162Z" fill="#8E52FF"/>
</g>
<rect x="56" y="226" width="48" height="48" rx="16" fill="white"/>
<path d="M70.5 246.187C70.6041 244.087 70.9154 242.778 71.8466 241.847C72.7779 240.915 74.0871 240.604 76.1868 240.5M89.5 246.187C89.3959 244.087 89.0846 242.778 88.1534 241.847C87.2221 240.915 85.9129 240.604 83.8132 240.5M83.8132 259.5C85.9129 259.396 87.2221 259.085 88.1534 258.153C89.0846 257.222 89.3959 255.913 89.5 253.813M76.1868 259.5C74.087 259.396 72.7779 259.085 71.8466 258.153C70.9154 257.222 70.6041 255.913 70.5 253.813" stroke="#A5A5A5" stroke-width="1.5" stroke-linecap="round" stroke-linejoin="round"/>
<path d="M84.5 253.5V249C84.5 246.515 82.4853 244.5 80 244.5C77.5147 244.5 75.5 246.515 75.5 249V253.5" stroke="#A5A5A5" stroke-width="1.5" stroke-linecap="round" stroke-linejoin="round"/>
<path d="M81.5 250.5V249C81.5 248.172 80.8284 247.5 80 247.5C79.1716 247.5 78.5 248.172 78.5 249V254.5M81.5 253.5V255.5" stroke="#A5A5A5" stroke-width="1.5" stroke-linecap="round" stroke-linejoin="round"/>
<rect x="242" y="226" width="48" height="48" rx="16" fill="white"/>
<path d="M269.5 252.5C272.814 252.5 275.5 249.814 275.5 246.5C275.5 243.186 272.814 240.5 269.5 240.5C266.186 240.5 263.5 243.186 263.5 246.5C263.5 247.38 263.69 248.216 264.03 248.97L256.5 256.5V259.5H259.5V257.5H261.5V255.5H263.5L267.03 251.97C267.784 252.31 268.62 252.5 269.5 252.5Z" stroke="#A5A5A5" stroke-width="1.5" stroke-linecap="round" stroke-linejoin="round"/>
<path d="M271.5 244.5L270.5 245.5" stroke="#A5A5A5" stroke-width="1.5" stroke-linecap="round" stroke-linejoin="round"/>
<path d="M118.5 165C118.5 165 84 162.5 81.5 173.5C79.0001 184.5 80 225.5 80 225.5" stroke="#D2D2D2" stroke-width="2" stroke-linecap="round" stroke-linejoin="round" stroke-dasharray="4 4"/>
<path d="M227 165.245C227 165.245 261.77 162.735 264.289 173.781C266.809 184.827 265.801 226 265.801 226" stroke="#D2D2D2" stroke-width="2" stroke-linecap="round" stroke-linejoin="round" stroke-dasharray="4 4"/>
<path d="M173 95V143" stroke="#D2D2D2" stroke-width="2" stroke-linecap="round" stroke-dasharray="4 4"/>
<rect x="149" y="47" width="48" height="48" rx="16" fill="#8E52FF"/>
<path d="M163 71C163 66.7574 163 64.636 164.464 63.318C165.929 62 168.286 62 173 62C177.714 62 180.071 62 181.535 63.318C183 64.636 183 66.7574 183 71C183 75.2426 183 77.364 181.535 78.682C180.071 80 177.714 80 173 80C168.286 80 165.929 80 164.464 78.682C163 77.364 163 75.2426 163 71Z" stroke="white" stroke-width="1.5" stroke-linecap="round" stroke-linejoin="round"/>
<path d="M166 75.5C167.208 72.9189 171.712 72.7491 173 75.5M171.5 68.5C171.5 69.6046 170.605 70.5 169.5 70.5C168.395 70.5 167.5 69.6046 167.5 68.5C167.5 67.3954 168.395 66.5 169.5 66.5C170.605 66.5 171.5 67.3954 171.5 68.5Z" stroke="white" stroke-width="1.5" stroke-linecap="round"/>
<path d="M176 69H180" stroke="white" stroke-width="1.5" stroke-linecap="round" stroke-linejoin="round"/>
<path d="M176 73H180" stroke="white" stroke-width="1.5" stroke-linecap="round" stroke-linejoin="round"/>
<defs>
<clipPath id="clip0_275_1288">
<rect width="100" height="41" fill="white" transform="translate(123 144)"/>
</clipPath>
</defs>
</svg>
