<svg width="100" height="41" viewBox="0 0 100 41" fill="none" xmlns="http://www.w3.org/2000/svg">
<path d="M89.6301 0H10.3699C4.64262 0 0 4.65474 0 10.397V30.5994C0 36.3417 4.64262 40.9965 10.3699 40.9965H89.6265C95.3539 40.9965 99.9965 36.3417 99.9965 30.5994V10.397C99.9965 4.65474 95.3539 0 89.6265 0H89.6301ZM25.8312 29.14H22.3192L19.0722 17.9636H18.9379L15.7015 29.14H12.1895L7.31018 12.0478H11.2462L14.0692 23.9255H14.2105L17.3233 12.0478H20.6939L23.7996 23.9503H23.948L26.771 12.0478H30.707L25.8277 29.14H25.8312ZM44.5571 26.9366C43.9953 27.6947 43.218 28.2898 42.2323 28.722C41.243 29.1577 40.1124 29.3738 38.8369 29.3738C37.5614 29.3738 36.4873 29.1577 35.5192 28.7255C34.5511 28.2933 33.7879 27.6982 33.2297 26.9401C32.6714 26.182 32.3853 25.3035 32.3676 24.3081H35.9962C36.0174 24.7261 36.1552 25.091 36.4096 25.4063C36.6604 25.7215 36.9996 25.9624 37.4201 26.136C37.8405 26.3096 38.3175 26.3946 38.8439 26.3946C39.3704 26.3946 39.8792 26.2989 40.2996 26.1041C40.7201 25.9093 41.0522 25.6401 41.2889 25.2929C41.5292 24.9493 41.6458 24.549 41.6458 24.0991C41.6458 23.6492 41.5186 23.2383 41.2677 22.8841C41.0169 22.5298 40.6529 22.2535 40.1866 22.0551C39.7166 21.8532 39.1619 21.754 38.5189 21.754H36.9289V19.1007H38.5189C39.063 19.1007 39.5435 19.0051 39.964 18.8173C40.3844 18.6296 40.7095 18.3639 40.9427 18.0274C41.1758 17.6909 41.2924 17.2976 41.2924 16.8478C41.2924 16.3979 41.19 16.0436 40.9886 15.7177C40.7872 15.3918 40.5045 15.1368 40.1406 14.9526C39.7767 14.7684 39.3527 14.6763 38.8722 14.6763C38.3917 14.6763 37.9359 14.7648 37.5331 14.9384C37.1268 15.112 36.8018 15.3635 36.558 15.6858C36.3142 16.0082 36.1834 16.3872 36.1658 16.8194H32.7103C32.728 15.8346 33.0071 14.9667 33.5512 14.2157C34.0953 13.4647 34.8302 12.8767 35.7524 12.4516C36.6781 12.0265 37.7204 11.814 38.8863 11.814C40.0523 11.814 41.0911 12.0265 41.9743 12.4552C42.8576 12.8838 43.5431 13.4612 44.0342 14.1874C44.5253 14.9136 44.7691 15.7284 44.762 16.6281C44.7691 17.5846 44.4723 18.3852 43.8752 19.0228C43.2781 19.664 42.5043 20.0678 41.5504 20.2414V20.376C42.8046 20.539 43.7621 20.9711 44.4193 21.6832C45.0765 22.3917 45.4016 23.2773 45.398 24.34C45.4051 25.3142 45.126 26.1785 44.5606 26.9366H44.5571ZM97.8942 28.9487C97.8942 34.567 93.3505 39.1261 87.7433 39.1261H62.6435C57.0364 39.1261 52.4927 34.5705 52.4927 28.9487V12.0513C52.4927 6.43304 57.0364 1.87394 62.6435 1.87394H87.7433C93.3505 1.87394 97.8942 6.4295 97.8942 12.0513V28.9487Z" fill="white"/>
<path d="M71.0737 13.3053C69.8371 12.6252 68.3602 12.2816 66.6466 12.2816H60.5519V29.3738H66.5936C68.3249 29.3738 69.8124 29.0302 71.0596 28.3465C72.3068 27.6628 73.2643 26.6815 73.9321 25.3992C74.5999 24.1204 74.9355 22.59 74.9355 20.8082C74.9355 19.0264 74.5999 17.5102 73.9321 16.2349C73.2643 14.9597 72.3104 13.9819 71.0737 13.3018V13.3053ZM70.7875 23.9291C70.4201 24.7332 69.8689 25.3248 69.1375 25.7074C68.4062 26.0899 67.5087 26.2777 66.4452 26.2777H64.1557V15.3777H66.4523C67.5193 15.3777 68.4132 15.5654 69.1411 15.9445C69.8689 16.3235 70.4166 16.9115 70.784 17.7121C71.1515 18.5127 71.3387 19.5471 71.3387 20.8082C71.3387 22.0693 71.155 23.1214 70.784 23.9255L70.7875 23.9291Z" fill="white"/>
<path d="M89.0895 21.1624C88.6337 20.7551 88.0967 20.415 87.4748 20.1351C86.853 19.8553 86.1711 19.6356 85.4256 19.4656L83.8957 19.0972C83.5247 19.0122 83.1749 18.913 82.8463 18.7926C82.5178 18.6721 82.2316 18.5304 81.9807 18.3675C81.7299 18.2045 81.5355 18.0061 81.3942 17.7794C81.2529 17.5527 81.1857 17.2835 81.1999 16.9788C81.1999 16.6104 81.3059 16.2845 81.5214 15.994C81.7334 15.7036 82.0443 15.4768 82.4506 15.3139C82.8569 15.1509 83.3516 15.0659 83.9416 15.0659C84.8073 15.0659 85.4927 15.2537 85.998 15.6256C86.5032 15.9976 86.7894 16.5219 86.8565 17.1949H90.312C90.2943 16.1782 90.0223 15.282 89.4958 14.5062C88.9694 13.734 88.2309 13.1282 87.284 12.696C86.3371 12.2639 85.2313 12.0442 83.9664 12.0442C82.7015 12.0442 81.6133 12.2603 80.6381 12.696C79.6629 13.1318 78.8927 13.734 78.338 14.5062C77.7797 15.2785 77.5042 16.1853 77.5112 17.2197C77.5042 18.4844 77.9175 19.4869 78.7514 20.2343C79.5852 20.9782 80.7194 21.5273 82.1574 21.878L84.0123 22.3456C84.6341 22.4944 85.1606 22.6644 85.5881 22.8451C86.0192 23.0293 86.3442 23.2525 86.5703 23.5111C86.7965 23.7732 86.9095 24.0956 86.9095 24.4781C86.9095 24.8891 86.7859 25.2539 86.535 25.5727C86.2841 25.8916 85.9344 26.136 85.4821 26.3167C85.0299 26.4938 84.4999 26.5823 83.8886 26.5823C83.2774 26.5823 82.7121 26.4867 82.221 26.2954C81.7299 26.1041 81.3377 25.8172 81.048 25.4346C80.7582 25.052 80.5922 24.5773 80.5533 24.0035H77.066C77.0943 25.2327 77.3911 26.2635 77.9599 27.096C78.5288 27.9285 79.3238 28.5555 80.3413 28.977C81.3589 29.3986 82.5566 29.6111 83.9346 29.6111C85.3125 29.6111 86.5067 29.4021 87.4925 28.9806C88.4783 28.559 89.2308 27.9674 89.7573 27.2023C90.2837 26.4371 90.5452 25.5302 90.5522 24.4852C90.5452 23.7732 90.418 23.1426 90.1636 22.59C89.9127 22.041 89.5559 21.5592 89.1036 21.1553L89.0895 21.1624Z" fill="white"/>
</svg>
