<svg width="80" height="80" viewBox="0 0 80 80" fill="none" xmlns="http://www.w3.org/2000/svg">
<path d="M34.836 12.9083C37.0226 12.8222 39.2344 12.8873 41.423 12.8875C43.3219 12.8876 45.2453 12.8194 47.1383 12.9838C50.5387 13.2904 53.7949 14.5012 56.5695 16.4904C60.45 19.3003 63.0617 23.5308 63.8351 28.259C64.3351 31.4927 63.9191 35.6582 61.9402 38.3641C63.7367 40.8851 64.5262 43.9437 64.5387 47.0164C64.5555 51.289 62.8797 55.2633 59.8656 58.289C57.241 60.9043 53.7863 62.5215 50.0973 62.8621C48.6848 63.0043 47.273 62.973 45.8555 62.9726L40.9961 62.9758L31.5771 63.0039C30.8052 63.0078 28.66 62.9105 28.0215 63.0699C27.407 63.2234 26.6751 63.7101 26.0909 64.0008L20.0873 67.0269C19.3046 67.4187 18.53 67.8848 17.7233 68.2207C17.4619 68.3293 17.1989 68.4027 16.9148 68.4183C16.3079 68.4492 15.7144 68.2324 15.2705 67.8172C14.8262 67.4086 14.6761 66.9172 14.6563 66.3324C14.6275 65.4769 14.6517 64.6125 14.6526 63.7558L14.6548 59.0043L14.6547 44.3605L14.6555 34.5339C14.6532 33.4087 14.6613 32.2834 14.6801 31.1583C14.6953 29.3349 14.7196 27.4792 15.1042 25.6878C15.7005 22.9323 17.0394 20.3926 18.9759 18.3438C21.7584 15.3642 25.5334 13.5036 29.5912 13.1116C31.3202 12.9296 33.0977 12.9633 34.836 12.9083Z" fill="#1E4061"/>
<path d="M31.7065 18.4548C32.5829 18.4183 33.4662 18.44 34.3436 18.4404L38.838 18.4405H42.9684C44.8731 18.4419 46.816 18.4216 48.6809 18.8631C50.4754 19.2841 52.1535 20.0987 53.5946 21.248C56.3117 23.3816 58.2059 26.4498 58.6125 29.9081C58.8981 32.1503 58.4129 34.423 57.2367 36.3533C56.802 37.0592 56.2856 37.6973 55.7746 38.3483C57.9145 40.591 59.3289 43.1566 59.3379 46.3398C59.368 49.4 58.1774 52.3457 56.0297 54.5254C54.1492 56.4074 51.6801 57.4215 49.0516 57.648C48.0735 57.7324 47.0848 57.709 46.1035 57.7109L33.6869 57.7117C32.645 57.7125 27.7914 57.6168 27.091 57.8496C26.4799 58.0523 25.4324 58.7516 24.8205 59.1066L19.8016 62.041L19.8019 37.8807L19.8031 31.4123C19.8035 30.0114 19.6929 28.6029 19.9365 27.216C20.2664 25.2862 21.1395 23.4903 22.4535 22.0389C24.0567 20.2741 26.2243 19.0313 28.5918 18.6717C29.6188 18.5157 30.6702 18.5019 31.7065 18.4548Z" fill="#499AE9"/>
<path d="M27.0325 29.0951C27.0324 26.0622 29.4908 23.6034 32.5237 23.6029L32.5926 23.6029L38.1528 23.6022L41.2324 23.601C42.1219 23.6009 43.0102 23.5807 43.8938 23.7074C45.0645 23.8751 46.1727 24.2299 47.1821 24.8545C48.7301 25.797 49.8289 27.3273 50.2274 29.0951C50.6164 30.7664 50.359 32.7489 49.4332 34.2116C48.1098 36.3035 46.4742 36.9319 44.1742 37.4617C44.4739 37.4925 44.7707 37.5087 45.0684 37.5597C47.2563 37.9344 49.3188 39.0645 50.6078 40.8969C51.7852 42.5703 52.1813 44.5922 51.827 46.5977C51.5653 47.8887 50.9113 49.3676 49.9684 50.316C48.8559 51.4348 47.4977 52.1016 45.9606 52.4316C44.7145 52.6992 43.4645 52.659 42.1989 52.6586L38.7731 52.6563L27.0325 52.6574L27.0324 38.1306L27.0325 29.0951Z" fill="#FCFCFC"/>
</svg>
