<svg width="150" height="135" viewBox="0 0 150 135" fill="none" xmlns="http://www.w3.org/2000/svg">
<g filter="url(#filter0_i_1883_2774)">
<rect x="38" y="3" width="74" height="74" rx="18" stroke="url(#paint0_linear_1883_2774)" stroke-width="6"/>
<path d="M58.1829 67.1311C56.8607 67.1311 55.8422 66.7737 55.1275 66.059C54.4485 65.38 54.109 64.3616 54.109 63.0036V34.3257C54.109 33.0035 54.4485 32.0029 55.1275 31.3239C55.8422 30.6092 56.8249 30.2518 58.0757 30.2518C59.3979 30.2518 60.3985 30.6092 61.0775 31.3239C61.7565 32.0029 62.0959 33.0035 62.0959 34.3257V37.9707L61.5063 35.8802C62.0423 34.1649 63.1144 32.789 64.7225 31.7527C66.3664 30.6806 68.2425 30.1446 70.3509 30.1446C72.638 30.1446 74.6392 30.6985 76.3545 31.8063C78.1056 32.9141 79.4635 34.4865 80.4284 36.5234C81.3932 38.5604 81.8757 40.9904 81.8757 43.8135C81.8757 46.6366 81.3932 49.0845 80.4284 51.1572C79.4635 53.2299 78.1234 54.8201 76.4081 55.9279C74.6928 57.0357 72.6737 57.5896 70.3509 57.5896C68.2782 57.5896 66.4378 57.0893 64.8297 56.0887C63.2216 55.0524 62.1317 53.7123 61.5599 52.0685H62.2032V63.0036C62.2032 64.3616 61.8458 65.38 61.1311 66.059C60.4521 66.7737 59.4694 67.1311 58.1829 67.1311ZM67.9387 51.5324C69.0823 51.5324 70.0829 51.2465 70.9405 50.6748C71.8339 50.103 72.5129 49.2632 72.9775 48.1554C73.4778 47.0119 73.7279 45.5646 73.7279 43.8135C73.7279 41.2048 73.1919 39.2929 72.1198 38.0779C71.0478 36.8272 69.6541 36.2018 67.9387 36.2018C66.7952 36.2018 65.7767 36.4698 64.8833 37.0059C64.0257 37.5419 63.3467 38.3817 62.8464 39.5252C62.3461 40.633 62.0959 42.0625 62.0959 43.8135C62.0959 46.4222 62.632 48.3698 63.7041 49.6563C64.7761 50.9071 66.1877 51.5324 67.9387 51.5324Z" fill="url(#paint1_linear_1883_2774)"/>
<circle cx="95.5" cy="21.5" r="5.5" fill="url(#paint2_linear_1883_2774)"/>
</g>
<g filter="url(#filter1_i_1883_2774)">
<path d="M18.8919 130.8V108.912H22.8279L22.8919 111.44C23.8839 109.552 25.7719 108.528 28.0119 108.528C32.8759 108.528 35.2759 112.528 35.2759 117.456C35.2759 122.384 32.8439 126.384 27.9799 126.384C25.8039 126.384 23.9159 125.328 22.9879 123.664V130.8H18.8919ZM27.0199 123.056C29.5159 123.056 31.0199 120.976 31.0199 117.456C31.0199 113.936 29.5159 111.856 27.0199 111.856C24.5239 111.856 22.9879 113.744 22.9879 117.456C22.9879 121.168 24.4919 123.056 27.0199 123.056ZM37.0494 126V108.912H41.1454V126H37.0494ZM36.9854 106.64V102.992H41.2414V106.64H36.9854ZM51.7574 126.384C46.6694 126.384 43.3414 122.864 43.3414 117.456C43.3414 112.08 46.6694 108.528 51.7574 108.528C56.1094 108.528 59.2134 110.896 59.7254 114.96L55.5014 115.184C55.1814 113.008 53.7414 111.856 51.7574 111.856C49.1014 111.856 47.5974 113.936 47.5974 117.456C47.5974 121.008 49.1014 123.056 51.7574 123.056C53.7414 123.056 55.1814 121.904 55.5014 119.504L59.7254 119.696C59.2454 123.792 56.1734 126.384 51.7574 126.384ZM67.6811 126C64.2891 126 62.7211 124.496 62.7211 121.104V112.08H60.0331V108.912H62.7211V104.912H66.8171V108.912H71.3291V112.08H66.8171V120.72C66.8171 122.32 67.4891 122.832 68.9291 122.832H71.3291V126H67.6811ZM73.2719 126V108.912H77.3679V126H73.2719ZM73.2079 106.64V102.992H77.4639V106.64H73.2079ZM95.9479 130.8H91.8519V123.664C90.9239 125.328 89.0359 126.384 86.8599 126.384C81.9959 126.384 79.5639 122.384 79.5639 117.456C79.5639 112.528 81.9639 108.528 86.8279 108.528C89.0679 108.528 90.9559 109.552 91.9479 111.44L92.0119 108.912H95.9479V130.8ZM87.8199 123.056C90.3479 123.056 91.8519 121.168 91.8519 117.456C91.8519 113.744 90.3159 111.856 87.8199 111.856C85.3239 111.856 83.8199 113.936 83.8199 117.456C83.8199 120.976 85.3239 123.056 87.8199 123.056ZM104.781 126.384C101.293 126.384 99.1494 123.984 99.1494 119.92V108.912H103.245V118.896C103.245 121.776 104.173 123.056 106.157 123.056C108.365 123.056 109.645 121.552 109.645 118.736V108.912H113.741V126H109.997L109.933 123.152C109.069 125.296 107.309 126.384 104.781 126.384ZM124.013 126.384C118.893 126.384 115.629 122.864 115.629 117.456C115.629 112.08 118.893 108.528 123.917 108.528C128.813 108.528 132.045 111.92 132.045 117.68V118.608H119.885C120.045 121.616 121.613 123.12 124.045 123.12C125.869 123.12 127.117 122.256 127.597 120.752L131.789 121.008C130.861 124.336 127.949 126.384 124.013 126.384ZM127.789 115.856C127.597 113.072 126.093 111.76 123.917 111.76C121.709 111.76 120.205 113.2 119.885 115.856H127.789Z" fill="url(#paint3_linear_1883_2774)"/>
</g>
<defs>
<filter id="filter0_i_1883_2774" x="35" y="0" width="80" height="80" filterUnits="userSpaceOnUse" color-interpolation-filters="sRGB">
<feFlood flood-opacity="0" result="BackgroundImageFix"/>
<feBlend mode="normal" in="SourceGraphic" in2="BackgroundImageFix" result="shape"/>
<feColorMatrix in="SourceAlpha" type="matrix" values="0 0 0 0 0 0 0 0 0 0 0 0 0 0 0 0 0 0 127 0" result="hardAlpha"/>
<feOffset dy="0.4"/>
<feComposite in2="hardAlpha" operator="arithmetic" k2="-1" k3="1"/>
<feColorMatrix type="matrix" values="0 0 0 0 0.892334 0 0 0 0 0.892334 0 0 0 0 0.892334 0 0 0 0.5 0"/>
<feBlend mode="normal" in2="shape" result="effect1_innerShadow_1883_2774"/>
</filter>
<filter id="filter1_i_1883_2774" x="18.8918" y="102.992" width="113.153" height="27.808" filterUnits="userSpaceOnUse" color-interpolation-filters="sRGB">
<feFlood flood-opacity="0" result="BackgroundImageFix"/>
<feBlend mode="normal" in="SourceGraphic" in2="BackgroundImageFix" result="shape"/>
<feColorMatrix in="SourceAlpha" type="matrix" values="0 0 0 0 0 0 0 0 0 0 0 0 0 0 0 0 0 0 127 0" result="hardAlpha"/>
<feOffset dy="0.4"/>
<feComposite in2="hardAlpha" operator="arithmetic" k2="-1" k3="1"/>
<feColorMatrix type="matrix" values="0 0 0 0 0.892334 0 0 0 0 0.892334 0 0 0 0 0.892334 0 0 0 0.5 0"/>
<feBlend mode="normal" in2="shape" result="effect1_innerShadow_1883_2774"/>
</filter>
<linearGradient id="paint0_linear_1883_2774" x1="4.78723" y1="11.2" x2="160.008" y2="16.1309" gradientUnits="userSpaceOnUse">
<stop stop-color="#4D44EF"/>
<stop offset="0.5" stop-color="#F35B5B"/>
<stop offset="1" stop-color="#F7A428"/>
</linearGradient>
<linearGradient id="paint1_linear_1883_2774" x1="38.5372" y1="13.22" x2="102.617" y2="14.1402" gradientUnits="userSpaceOnUse">
<stop stop-color="#4D44EF"/>
<stop offset="0.5" stop-color="#F35B5B"/>
<stop offset="1" stop-color="#F7A428"/>
</linearGradient>
<linearGradient id="paint2_linear_1883_2774" x1="85.8457" y1="17.54" x2="107.189" y2="18.218" gradientUnits="userSpaceOnUse">
<stop stop-color="#4D44EF"/>
<stop offset="0.5" stop-color="#F35B5B"/>
<stop offset="1" stop-color="#F7A428"/>
</linearGradient>
<linearGradient id="paint3_linear_1883_2774" x1="-56.6489" y1="100.6" x2="230.607" y2="134.82" gradientUnits="userSpaceOnUse">
<stop stop-color="#4D44EF"/>
<stop offset="0.5" stop-color="#F35B5B"/>
<stop offset="1" stop-color="#F7A428"/>
</linearGradient>
</defs>
</svg>
