<svg width="150" height="135" viewBox="0 0 150 135" fill="none" xmlns="http://www.w3.org/2000/svg">
<g filter="url(#filter0_i_2310_3649)">
<rect x="38" y="3" width="74" height="74" rx="18" stroke="url(#paint0_linear_2310_3649)" stroke-width="6"/>
<path d="M70.3509 57.5896C68.2425 57.5896 66.3664 57.0715 64.7225 56.0351C63.1144 54.9631 62.0423 53.5515 61.5063 51.8004L62.0959 50.0315V53.355C62.0959 54.6772 61.7565 55.6956 61.0775 56.4104C60.3985 57.1251 59.4158 57.4824 58.1293 57.4824C56.8428 57.4824 55.8422 57.1251 55.1275 56.4104C54.4485 55.6956 54.109 54.6772 54.109 53.355V22.8545C54.109 21.4965 54.4485 20.4781 55.1275 19.7991C55.8422 19.0844 56.8607 18.727 58.1829 18.727C59.4694 18.727 60.4521 19.0844 61.1311 19.7991C61.8458 20.4781 62.2032 21.4965 62.2032 22.8545V35.5586H61.5599C62.1317 33.9504 63.2216 32.6461 64.8297 31.6455C66.4378 30.6449 68.2782 30.1446 70.3509 30.1446C72.6737 30.1446 74.6928 30.6985 76.4081 31.8063C78.1234 32.9141 79.4635 34.4865 80.4284 36.5234C81.3932 38.5604 81.8757 40.9904 81.8757 43.8135C81.8757 46.6366 81.3932 49.0845 80.4284 51.1572C79.4635 53.2299 78.1056 54.8201 76.3545 55.9279C74.6392 57.0357 72.638 57.5896 70.3509 57.5896ZM67.9387 51.5324C69.0823 51.5324 70.0829 51.2465 70.9405 50.6748C71.8339 50.103 72.5129 49.2632 72.9775 48.1554C73.4778 47.0119 73.7279 45.5646 73.7279 43.8135C73.7279 41.2048 73.1919 39.2929 72.1198 38.0779C71.0478 36.8272 69.6541 36.2018 67.9387 36.2018C66.7952 36.2018 65.7767 36.4698 64.8833 37.0059C64.0257 37.5419 63.3467 38.3817 62.8464 39.5252C62.3461 40.633 62.0959 42.0625 62.0959 43.8135C62.0959 46.4222 62.632 48.3698 63.7041 49.6563C64.7761 50.9071 66.1877 51.5324 67.9387 51.5324Z" fill="url(#paint1_linear_2310_3649)"/>
</g>
<g filter="url(#filter1_i_2310_3649)">
<path d="M27.5881 126V103.28H36.1001C41.6361 103.28 44.5801 105.168 44.5801 109.424C44.5801 112.144 42.9161 113.968 40.0041 114.256C43.5561 114.544 45.5401 116.656 45.5401 119.76C45.5401 123.92 42.5641 126 37.2521 126H27.5881ZM37.0601 122.48C39.6521 122.48 41.2841 121.392 41.2841 119.312C41.2841 117.2 39.6841 116.08 37.0601 116.08H31.7481V122.48H37.0601ZM35.9721 112.816C38.6921 112.816 40.3241 111.76 40.3241 109.808C40.3241 107.76 38.7881 106.8 35.9721 106.8H31.7481V112.816H35.9721ZM52.3661 126C49.8381 126 48.2381 124.816 48.2381 121.968L48.2701 103.28H52.3661V121.552C52.3661 122.448 52.8141 122.832 53.6461 122.832H54.8941V126H52.3661ZM61.9821 126.384C58.3981 126.384 56.0301 124.688 56.0301 121.712C56.0301 118.768 57.8541 117.2 61.5981 116.464L67.2621 115.344C67.2621 112.944 66.1421 111.696 63.9981 111.696C61.9821 111.696 60.8941 112.624 60.5101 114.352L56.3181 114.16C56.9901 110.576 59.7421 108.528 63.9981 108.528C68.8621 108.528 71.3581 111.088 71.3581 115.632V121.84C71.3581 122.768 71.6781 123.024 72.3181 123.024H72.8621V126C72.6061 126.064 71.9341 126.128 71.3901 126.128C69.5341 126.128 68.1581 125.456 67.8061 123.344C66.9741 125.168 64.7981 126.384 61.9821 126.384ZM62.8141 123.408C65.5341 123.408 67.2621 121.68 67.2621 119.088V118.128L62.8461 119.024C61.0221 119.376 60.2861 120.144 60.2861 121.328C60.2861 122.672 61.1821 123.408 62.8141 123.408ZM83.9871 126.384C81.5871 126.384 79.7631 125.296 78.8031 123.472L78.7071 126H74.8031V103.28H78.8991V111.344C79.7951 109.808 81.6191 108.528 83.9871 108.528C88.4031 108.528 91.1871 112.016 91.1871 117.456C91.1871 122.896 88.4031 126.384 83.9871 126.384ZM83.0591 123.056C85.3951 123.056 86.9311 120.944 86.9311 117.456C86.9311 113.904 85.4271 111.856 83.0911 111.856C80.4351 111.856 78.8991 113.904 78.8991 117.456C78.8991 120.944 80.4351 123.056 83.0591 123.056ZM100.282 126.384C95.2259 126.384 92.5699 123.984 92.3139 120.624L96.5059 120.432C96.7939 122.224 97.9139 123.248 100.282 123.248C102.202 123.248 103.354 122.672 103.354 121.328C103.354 120.176 102.778 119.664 99.6099 119.12C94.3619 118.224 92.7299 116.816 92.7299 113.904C92.7299 110.736 95.2259 108.528 99.9619 108.528C104.57 108.528 106.938 110.992 107.418 114.288L103.258 114.48C102.97 112.752 101.818 111.664 99.9299 111.664C97.9779 111.664 96.9859 112.528 96.9859 113.776C96.9859 115.152 97.8819 115.696 100.474 116.112C105.85 116.944 107.61 118.416 107.61 121.264C107.61 124.56 104.634 126.384 100.282 126.384ZM110.178 130.8V127.632H112.354C113.474 127.632 113.922 127.312 114.242 126.512L114.69 125.328H113.506L107.426 108.912H111.65L115.97 121.488L120.034 108.912H124.29L117.602 127.792C116.866 129.904 115.586 130.8 113.09 130.8H110.178Z" fill="url(#paint2_linear_2310_3649)"/>
</g>
<defs>
<filter id="filter0_i_2310_3649" x="35" y="0" width="80" height="80" filterUnits="userSpaceOnUse" color-interpolation-filters="sRGB">
<feFlood flood-opacity="0" result="BackgroundImageFix"/>
<feBlend mode="normal" in="SourceGraphic" in2="BackgroundImageFix" result="shape"/>
<feColorMatrix in="SourceAlpha" type="matrix" values="0 0 0 0 0 0 0 0 0 0 0 0 0 0 0 0 0 0 127 0" result="hardAlpha"/>
<feOffset dy="0.4"/>
<feComposite in2="hardAlpha" operator="arithmetic" k2="-1" k3="1"/>
<feColorMatrix type="matrix" values="0 0 0 0 0.892334 0 0 0 0 0.892334 0 0 0 0 0.892334 0 0 0 0.5 0"/>
<feBlend mode="normal" in2="shape" result="effect1_innerShadow_2310_3649"/>
</filter>
<filter id="filter1_i_2310_3649" x="27.5881" y="103.28" width="96.7018" height="27.52" filterUnits="userSpaceOnUse" color-interpolation-filters="sRGB">
<feFlood flood-opacity="0" result="BackgroundImageFix"/>
<feBlend mode="normal" in="SourceGraphic" in2="BackgroundImageFix" result="shape"/>
<feColorMatrix in="SourceAlpha" type="matrix" values="0 0 0 0 0 0 0 0 0 0 0 0 0 0 0 0 0 0 127 0" result="hardAlpha"/>
<feOffset dy="0.4"/>
<feComposite in2="hardAlpha" operator="arithmetic" k2="-1" k3="1"/>
<feColorMatrix type="matrix" values="0 0 0 0 0.892334 0 0 0 0 0.892334 0 0 0 0 0.892334 0 0 0 0.5 0"/>
<feBlend mode="normal" in2="shape" result="effect1_innerShadow_2310_3649"/>
</filter>
<linearGradient id="paint0_linear_2310_3649" x1="4.78723" y1="11.2" x2="160.008" y2="16.1309" gradientUnits="userSpaceOnUse">
<stop stop-color="#4D44EF"/>
<stop offset="0.5" stop-color="#EB5BF3"/>
<stop offset="1" stop-color="#F7A428"/>
</linearGradient>
<linearGradient id="paint1_linear_2310_3649" x1="38.5372" y1="13.22" x2="102.617" y2="14.1402" gradientUnits="userSpaceOnUse">
<stop stop-color="#4D44EF"/>
<stop offset="0.5" stop-color="#EB5BF3"/>
<stop offset="1" stop-color="#F7A428"/>
</linearGradient>
<linearGradient id="paint2_linear_2310_3649" x1="-56.6489" y1="100.6" x2="230.607" y2="134.82" gradientUnits="userSpaceOnUse">
<stop stop-color="#4D44EF"/>
<stop offset="0.5" stop-color="#EB5BF3"/>
<stop offset="1" stop-color="#F7A428"/>
</linearGradient>
</defs>
</svg>
